<?xml version="1.0" encoding="UTF-8"?>
<svg xmlns="http://www.w3.org/2000/svg" xmlns:xlink="http://www.w3.org/1999/xlink" width="192px" height="192px" viewBox="0 0 192 192" version="1.1">
<g id="surface1">
<path style=" stroke:none;fill-rule:nonzero;fill:rgb(0%,0%,0%);fill-opacity:1;" d="M 96 192 C 149.023438 192 192 149.023438 192 96 C 192 42.976562 149.023438 0 96 0 C 42.976562 0 0 42.976562 0 96 C 0 149.023438 42.976562 192 96 192 Z M 138.375 78.375 L 90.375 126.375 C 86.851562 129.898438 81.148438 129.898438 77.664062 126.375 L 53.664062 102.375 C 50.136719 98.851562 50.136719 93.148438 53.664062 89.664062 C 57.1875 86.175781 62.886719 86.136719 66.375 89.664062 L 84 107.289062 L 125.625 65.625 C 129.148438 62.101562 134.851562 62.101562 138.335938 65.625 C 141.824219 69.148438 141.863281 74.851562 138.335938 78.335938 Z M 138.375 78.375 "/>
</g>
</svg>
